<!--?xml version="1.0" standalone="no"?-->
              <svg id="sw-js-blob-svg" viewBox="0 0 100 100" xmlns="http://www.w3.org/2000/svg" version="1.1">
                    <defs> 
                        <linearGradient id="sw-gradient" x1="0" x2="1" y1="1" y2="0">
                            <stop id="stop1" stop-color="rgba(248, 117, 55, 1)" offset="0%"></stop>
                            <stop id="stop2" stop-color="rgba(251, 168, 31, 1)" offset="100%"></stop>
                        </linearGradient>
                    </defs>
                <path fill="url(#sw-gradient)" d="M24.3,-29.6C31.3,-23,36.7,-15.2,36.7,-7.6C36.7,0,31.3,7.5,26.6,15.1C21.9,22.8,18,30.7,11.7,33.4C5.5,36.2,-3,33.9,-11,30.8C-19.1,27.7,-26.6,23.7,-32.7,17C-38.8,10.3,-43.4,0.9,-41.2,-6.6C-39.1,-14,-30.1,-19.6,-22.1,-26C-14.1,-32.4,-7,-39.6,0.8,-40.5C8.6,-41.5,17.3,-36.2,24.3,-29.6Z" width="100%" height="100%" transform="translate(50 50)" stroke-width="0" style="transition: all 0.3s ease 0s;"></path>
              </svg>